<svg width="126" height="29" viewBox="0 0 126 29" fill="none" xmlns="http://www.w3.org/2000/svg">
<path d="M26.3672 1.33984L26.9727 8.60547H26.3477C25.957 7.26432 25.4232 6.10547 24.7461 5.12891C24.082 4.15234 23.3008 3.40365 22.4023 2.88281C21.5169 2.34896 20.5859 2.08203 19.6094 2.08203C18.8411 2.08203 18.1706 2.24479 17.5977 2.57031C17.0378 2.88281 16.6211 3.31901 16.3477 3.87891C16.0872 4.41276 15.957 5.27214 15.957 6.45703V22.043C15.957 23.2018 16.0352 24.0547 16.1914 24.6016C16.3477 25.1354 16.6471 25.6042 17.0898 26.0078C17.8841 26.724 19.043 27.1862 20.5664 27.3945V28H6.79688V27.3945C8.48958 27.1602 9.72656 26.6263 10.5078 25.793C10.8594 25.4154 11.1003 24.9531 11.2305 24.4062C11.3607 23.8594 11.4258 23.0716 11.4258 22.043V6.45703C11.4258 5.16797 11.25 4.23047 10.8984 3.64453C10.625 3.16276 10.2148 2.78516 9.66797 2.51172C9.12109 2.22526 8.48958 2.08203 7.77344 2.08203C6.30208 2.08203 4.95443 2.66797 3.73047 3.83984C2.51953 4.9987 1.61458 6.58724 1.01562 8.60547H0.410156L1.01562 1.33984H26.3672ZM24.8828 2.0625H22.0508C22.7409 2.34896 23.3203 2.68099 23.7891 3.05859C24.2578 3.42318 24.7461 3.95703 25.2539 4.66016L24.8828 2.0625ZM10.332 27.0039H16.0547L15.293 26.4375C14.8242 26.0859 14.5312 25.819 14.4141 25.6367C14.2969 25.4544 14.2383 25.168 14.2383 24.7773V24.1328C14.2383 24.0286 14.2318 23.957 14.2188 23.918C14.2188 23.8789 14.2188 23.8398 14.2188 23.8008V5.53906C14.2188 5.5 14.2188 5.46094 14.2188 5.42188C14.2318 5.38281 14.2383 5.3112 14.2383 5.20703V4.5625C14.2383 4.17188 14.3099 3.8724 14.4531 3.66406C14.5964 3.44271 14.8763 3.1888 15.293 2.90234L16.4062 2.08203H10.3906L11.3086 2.90234C11.6341 3.1888 11.8555 3.45573 11.9727 3.70312C12.0898 3.9375 12.1484 4.22396 12.1484 4.5625V5.20703C12.1615 5.32422 12.168 5.4349 12.168 5.53906V23.8008C12.168 23.9049 12.1615 24.0156 12.1484 24.1328V24.7773C12.1484 25.168 12.0833 25.4609 11.9531 25.6562C11.8359 25.8516 11.556 26.112 11.1133 26.4375L10.332 27.0039ZM1.66016 2.0625L1.38672 4.93359C1.94661 4.11328 2.42188 3.51432 2.8125 3.13672C3.20312 2.75911 3.71094 2.40104 4.33594 2.0625H1.66016ZM28.6719 14.6992C28.6719 12.8112 29.0365 11.0078 29.7656 9.28906C30.4948 7.57031 31.5039 6.06641 32.793 4.77734C34.0951 3.47526 35.5924 2.47266 37.2852 1.76953C38.9909 1.05339 40.7878 0.695312 42.6758 0.695312C45.2018 0.695312 47.5326 1.32682 49.668 2.58984C51.8164 3.83984 53.5156 5.53906 54.7656 7.6875C56.0286 9.83594 56.6602 12.1732 56.6602 14.6992C56.6602 16.5742 56.3021 18.3646 55.5859 20.0703C54.8828 21.763 53.8802 23.2604 52.5781 24.5625C51.276 25.8646 49.7852 26.8802 48.1055 27.6094C46.4258 28.3255 44.6354 28.6836 42.7344 28.6836C40.1693 28.6836 37.806 28.0586 35.6445 26.8086C33.4961 25.5586 31.7969 23.8659 30.5469 21.7305C29.2969 19.582 28.6719 17.2383 28.6719 14.6992ZM33.5938 14.5625C33.5938 16.4766 33.8086 18.2539 34.2383 19.8945C34.668 21.5221 35.2799 22.9154 36.0742 24.0742C36.8815 25.2201 37.8451 26.099 38.9648 26.7109C40.0977 27.3229 41.3477 27.6289 42.7148 27.6289C44.9414 27.6289 46.888 26.7435 48.5547 24.9727C49.5703 23.8789 50.3516 22.4466 50.8984 20.6758C51.4583 18.8919 51.7383 16.8477 51.7383 14.543C51.7383 12.5378 51.5234 10.7279 51.0938 9.11328C50.6771 7.4987 50.0716 6.125 49.2773 4.99219C48.4961 3.85938 47.5456 2.98698 46.4258 2.375C45.319 1.76302 44.069 1.45703 42.6758 1.45703C41.2956 1.45703 40.0456 1.76953 38.9258 2.39453C37.819 3.00651 36.8685 3.89193 36.0742 5.05078C35.2799 6.19661 34.668 7.58984 34.2383 9.23047C33.8086 10.8581 33.5938 12.6354 33.5938 14.5625ZM36.7773 26.7109C35.6185 25.8516 34.6549 24.8424 33.8867 23.6836C33.1315 22.5117 32.5586 21.1576 32.168 19.6211C31.7904 18.0846 31.6016 16.3984 31.6016 14.5625C31.6016 11.8542 32.0117 9.54948 32.832 7.64844C33.6654 5.73438 34.9805 4.10026 36.7773 2.74609C35.2279 3.56641 33.8997 4.58203 32.793 5.79297C31.6992 7.00391 30.8594 8.36458 30.2734 9.875C29.7005 11.3724 29.4141 12.974 29.4141 14.6797C29.4141 16.3724 29.7005 17.9805 30.2734 19.5039C30.8594 21.0143 31.6992 22.3815 32.793 23.6055C33.8997 24.8294 35.2279 25.8646 36.7773 26.7109ZM47.5 26.7305C52.2656 23.9831 54.6484 19.9727 54.6484 14.6992C54.6484 13.0065 54.3815 11.3919 53.8477 9.85547C53.3268 8.30599 52.5781 6.93229 51.6016 5.73438C50.638 4.52344 49.5052 3.5599 48.2031 2.84375C51.0547 5.34375 52.4805 9.23698 52.4805 14.5234C52.4805 16.0729 52.3372 17.5573 52.0508 18.9766C51.7773 20.3828 51.3932 21.6133 50.8984 22.668C50.651 23.2018 50.3841 23.6771 50.0977 24.0938C49.8112 24.5104 49.4596 24.9336 49.043 25.3633C48.6263 25.7799 48.112 26.2357 47.5 26.7305ZM76.9336 26.8086H76.4648L65.8008 5.57812L64.6484 18.8008C64.5833 19.5299 64.5508 20.2201 64.5508 20.8711C64.5508 22.7721 64.9349 24.237 65.7031 25.2656C66.4844 26.2943 67.7409 27.0039 69.4727 27.3945V28H58.8086V27.3945C59.7591 27.056 60.599 26.5482 61.3281 25.8711C62.0573 25.181 62.6172 24.3802 63.0078 23.4688C63.4245 22.4661 63.7305 20.8711 63.9258 18.6836L65.1562 4.60156C64.6615 3.67708 64.0951 3.01302 63.457 2.60938C62.819 2.20573 62.0117 1.98438 61.0352 1.94531V1.33984H70.4883C70.4362 1.47005 70.4036 1.55469 70.3906 1.59375C70.1432 2.19271 70.0195 2.66146 70.0195 3C70.0195 3.625 70.3516 4.60156 71.0156 5.92969L78.5742 20.9297L84.8242 6.33984C85.319 5.16797 85.5664 4.27604 85.5664 3.66406C85.5664 3.03906 85.306 2.26432 84.7852 1.33984H94.1797V1.94531C92.8776 2.1276 91.9336 2.51172 91.3477 3.09766C90.7617 3.67057 90.4688 4.51693 90.4688 5.63672C90.4688 5.98828 90.4883 6.32031 90.5273 6.63281L90.5859 7.12109L92.2266 21.6133C92.2526 21.8086 92.2721 21.9779 92.2852 22.1211C92.3112 22.2643 92.3763 22.6745 92.4805 23.3516C92.6758 24.6146 93.0599 25.5521 93.6328 26.1641C94.2188 26.776 95.1172 27.1862 96.3281 27.3945V28H83.9062V27.3945C85.2734 27.056 86.276 26.6133 86.9141 26.0664C87.5651 25.5065 87.8906 24.8034 87.8906 23.957C87.8906 23.6315 87.8451 23.0977 87.7539 22.3555L85.8398 5.67578L76.9336 26.8086ZM86.6602 27.0039H92.6562L91.6406 26.1836C91.1979 25.832 90.9049 25.0703 90.7617 23.8984L88.6133 5.24609C88.5872 4.90755 88.5742 4.67318 88.5742 4.54297C88.5742 4.24349 88.6393 3.98958 88.7695 3.78125C88.8997 3.5599 89.1667 3.28646 89.5703 2.96094L90.6836 2.08203H86.1523L88.6133 23.625L88.6914 24.0547C88.7174 24.3672 88.7305 24.6016 88.7305 24.7578C88.7305 25.0833 88.6654 25.3372 88.5352 25.5195C88.418 25.7018 88.1445 25.9492 87.7148 26.2617L86.6602 27.0039ZM76.6406 25.6758L77.7148 23.1367L68.7305 5.24609C68.2878 4.32161 68.0664 3.65104 68.0664 3.23438C68.0664 2.83073 68.1706 2.44661 68.3789 2.08203H63.8867C64.6159 2.60286 65.1628 3.15625 65.5273 3.74219C66.0221 4.48438 66.4453 5.22005 66.7969 5.94922L76.6406 25.6758ZM65.4883 27.0039C64.8633 26.3268 64.4336 25.7734 64.1992 25.3438C63.9779 24.901 63.8086 24.3411 63.6914 23.6641C63.3789 24.4453 63.0339 25.0703 62.6562 25.5391C62.2786 26.0078 61.7383 26.4961 61.0352 27.0039H65.4883ZM99.4141 7.84375C100.026 6.90625 100.332 6.20964 100.332 5.75391C100.332 5.36328 100.195 4.98568 99.9219 4.62109L99.5117 4.07422C99.1341 3.54036 98.9453 3.05859 98.9453 2.62891C98.9453 2.08203 99.1471 1.61979 99.5508 1.24219C99.9544 0.864583 100.449 0.675781 101.035 0.675781C101.699 0.675781 102.227 0.884115 102.617 1.30078C103.021 1.70443 103.223 2.2513 103.223 2.94141C103.223 4.45182 102.064 6.1901 99.7461 8.15625L99.4141 7.84375ZM100.879 5.73438C101.452 4.6276 101.738 3.7487 101.738 3.09766C101.738 2.61589 101.634 2.22526 101.426 1.92578C101.217 1.6263 100.944 1.47656 100.605 1.47656C100.319 1.47656 100.085 1.58073 99.9023 1.78906C99.7201 1.9974 99.6289 2.27083 99.6289 2.60938C99.6289 2.96094 99.8438 3.44271 100.273 4.05469C100.677 4.64062 100.879 5.11589 100.879 5.48047V5.73438ZM121.777 1.94531L122.91 8.44922H122.246C121.895 7.27734 121.549 6.35286 121.211 5.67578C120.872 4.9987 120.495 4.43229 120.078 3.97656C119.414 3.23438 118.613 2.65495 117.676 2.23828C116.751 1.82161 115.781 1.61328 114.766 1.61328C113.333 1.61328 112.161 2.00391 111.25 2.78516C110.339 3.55339 109.883 4.54948 109.883 5.77344C109.883 7.11458 110.475 8.22786 111.66 9.11328C112.272 9.55599 112.923 9.95312 113.613 10.3047C114.316 10.6432 115.41 11.125 116.895 11.75C117.91 12.1536 118.77 12.5182 119.473 12.8438C120.176 13.1693 120.742 13.4622 121.172 13.7227C121.602 13.9831 122.031 14.2826 122.461 14.6211C124.271 16.0794 125.176 17.987 125.176 20.3438C125.176 21.8932 124.753 23.293 123.906 24.543C123.06 25.793 121.888 26.776 120.391 27.4922C118.893 28.1953 117.233 28.5469 115.41 28.5469C114.147 28.5469 112.689 28.3581 111.035 27.9805C110.059 27.7461 108.776 27.3294 107.188 26.7305L106.641 26.5352L106.055 19.1328H106.641C107.214 21.125 108.138 22.9023 109.414 24.4648C111.094 26.5091 113.092 27.5312 115.41 27.5312C116.595 27.5312 117.643 27.3099 118.555 26.8672C119.479 26.4115 120.202 25.793 120.723 25.0117C121.243 24.2174 121.504 23.3125 121.504 22.2969C121.504 21.3984 121.302 20.5911 120.898 19.875C120.495 19.1458 119.837 18.4622 118.926 17.8242C118.014 17.1732 116.764 16.5091 115.176 15.832C112.871 14.8294 111.471 14.1914 110.977 13.918C110.026 13.3841 109.238 12.8047 108.613 12.1797C107.988 11.5547 107.526 10.8776 107.227 10.1484C106.927 9.41927 106.777 8.63802 106.777 7.80469C106.777 6.51562 107.116 5.33724 107.793 4.26953C108.483 3.20182 109.421 2.36198 110.605 1.75C111.803 1.13802 113.125 0.832031 114.57 0.832031C115.482 0.832031 116.497 0.981771 117.617 1.28125L118.789 1.59375C119.661 1.82812 120.592 1.94531 121.582 1.94531H121.777ZM120.293 26.3594C122.441 24.8099 123.516 22.9479 123.516 20.7734C123.516 19.9141 123.333 19.0807 122.969 18.2734C122.617 17.4531 122.109 16.7565 121.445 16.1836C120.482 15.3112 118.783 14.3672 116.348 13.3516C114.329 12.4922 113.014 11.9128 112.402 11.6133C111.803 11.3138 111.191 10.9102 110.566 10.4023C109.264 9.36068 108.613 8.04557 108.613 6.45703C108.613 5.98828 108.665 5.5651 108.77 5.1875C108.874 4.79688 109.03 4.42578 109.238 4.07422C109.447 3.70964 109.792 3.22786 110.273 2.62891C108.411 3.97005 107.48 5.64323 107.48 7.64844C107.48 9.57552 108.236 11.099 109.746 12.2188C110.54 12.8177 111.452 13.3516 112.48 13.8203C112.611 13.8854 113.613 14.3281 115.488 15.1484C117.754 16.125 119.316 17.0104 120.176 17.8047C121.543 19.0677 122.227 20.5586 122.227 22.2773C122.227 23.1107 122.07 23.8529 121.758 24.5039C121.458 25.1419 120.97 25.7604 120.293 26.3594ZM107.266 25.5977C108.125 26.0924 109.219 26.5677 110.547 27.0234C109.674 26.2422 109.01 25.5977 108.555 25.0898C108.112 24.582 107.604 23.8659 107.031 22.9414L107.266 25.5977Z" fill="black"/>
</svg>
